<svg width="38" height="34" viewBox="0 0 38 34" fill="none" xmlns="http://www.w3.org/2000/svg">
<path d="M38 0.804135L37.041 7.68112C35.123 7.52026 33.5647 7.84199 32.3659 8.64632C31.1672 9.41043 30.3281 10.5365 29.8486 12.0245C29.409 13.4723 29.3291 15.1614 29.6088 17.0917H38V33.5H21.6972V17.0917C21.6972 11.3006 23.0358 6.91702 25.7129 3.94101C28.3901 0.965003 32.4858 -0.0806224 38 0.804135ZM16.3028 0.804135L15.3438 7.68112C13.4259 7.52026 11.8675 7.84199 10.6688 8.64632C9.47003 9.41043 8.63092 10.5365 8.15142 12.0245C7.71188 13.4723 7.63197 15.1614 7.91167 17.0917H16.3028V33.5H0V17.0917C0 11.3006 1.33859 6.91702 4.01577 3.94101C6.69295 0.965003 10.7886 -0.0806224 16.3028 0.804135Z" fill="#6A24FF"/>
</svg>
